<?xml version="1.0" standalone="no"?>
<!DOCTYPE svg PUBLIC "-//W3C//DTD SVG 20010904//EN"
 "http://www.w3.org/TR/2001/REC-SVG-20010904/DTD/svg10.dtd">
<svg version="1.0" xmlns="http://www.w3.org/2000/svg"
 width="415.000000pt" height="278.000000pt" viewBox="0 0 415.000000 278.000000"
 preserveAspectRatio="xMidYMid meet">

<g transform="translate(0.000000,278.000000) scale(0.100000,-0.100000)"
fill="#000000" stroke="none">
<path d="M2006 2759 c-52 -41 -56 -62 -56 -274 0 -218 5 -240 63 -275 39 -24
78 -25 122 -4 65 30 70 47 73 259 4 216 -2 252 -52 290 -43 33 -111 35 -150 4z"/>
<path d="M1089 2615 c-54 -29 -79 -101 -56 -156 8 -19 80 -98 159 -176 l145
-143 51 0 c60 0 104 30 122 85 22 66 8 90 -139 238 -75 76 -148 145 -163 153
-34 18 -85 17 -119 -1z"/>
<path d="M2955 2621 c-36 -16 -303 -295 -310 -324 -12 -47 3 -93 41 -126 29
-26 43 -31 86 -31 l52 0 153 153 153 153 0 52 c0 45 -4 57 -33 88 -26 29 -42
37 -77 40 -25 2 -54 0 -65 -5z"/>
<path d="M0 1033 l0 -808 24 -51 c28 -60 80 -115 139 -146 l42 -23 1973 -3
1972 -2 0 810 0 811 -24 47 c-31 61 -88 115 -151 144 l-50 23 -1962 3 -1963 2
0 -807z m680 327 l0 -130 -170 0 -170 0 0 130 0 130 170 0 170 0 0 -130z m520
0 l0 -130 -170 0 -170 0 0 130 0 130 170 0 170 0 0 -130z m520 0 l0 -130 -165
0 -165 0 0 130 0 130 165 0 165 0 0 -130z m530 0 l0 -130 -170 0 -170 0 0 130
0 130 170 0 170 0 0 -130z m520 0 l0 -130 -170 0 -170 0 0 130 0 130 170 0
170 0 0 -130z m520 0 l0 -130 -170 0 -170 0 0 130 0 130 170 0 170 0 0 -130z
m520 0 l0 -130 -170 0 -170 0 0 130 0 130 170 0 170 0 0 -130z m-3130 -440 l0
-130 -170 0 -170 0 0 123 c0 68 3 127 7 130 3 4 80 7 170 7 l163 0 0 -130z
m523 4 c4 -70 4 -130 1 -135 -6 -10 -178 -12 -276 -2 l-68 6 0 122 c0 67 3
125 7 128 3 4 79 7 168 7 l162 0 6 -126z m522 0 c5 -76 4 -129 -2 -135 -5 -5
-79 -8 -174 -7 -153 3 -164 4 -167 22 -2 11 -1 71 3 133 l7 113 163 0 163 0 7
-126z m523 -6 l-3 -133 -167 -3 -168 -2 0 135 0 135 170 0 171 0 -3 -132z
m522 -3 l0 -135 -170 0 -170 0 0 135 0 135 170 0 170 0 0 -135z m520 6 c0
-108 -3 -130 -16 -135 -9 -3 -85 -6 -170 -6 l-154 0 0 135 0 135 170 0 170 0
0 -129z m520 -1 l0 -130 -170 0 -170 0 0 123 c0 68 3 127 7 130 3 4 80 7 170
7 l163 0 0 -130z m-2602 -385 c2 -38 0 -98 -3 -133 l-7 -62 -166 2 -167 3 -3
127 -3 127 43 4 c24 2 102 3 173 3 l130 -1 3 -70z m1562 -60 l0 -135 -689 0
-688 0 -7 38 c-8 50 -8 217 1 225 3 4 316 7 695 7 l688 0 0 -135z m518 -2 l3
-133 -171 0 -170 0 0 135 0 135 168 -2 167 -3 3 -132z m-2608 -3 l0 -130 -167
2 -168 3 -3 128 -3 127 171 0 170 0 0 -130z m3130 0 l0 -130 -167 2 -168 3 -3
128 -3 127 171 0 170 0 0 -130z"/>
</g>
</svg>
